<svg id="visual" viewBox="0 0 900 450" width="900" height="450" xmlns="http://www.w3.org/2000/svg" xmlns:xlink="http://www.w3.org/1999/xlink" version="1.1"><path d="M0 82L6.5 78.3C13 74.7 26 67.3 39 62.8C52 58.3 65 56.7 78 64.8C91 73 104 91 117.2 100C130.3 109 143.7 109 156.8 109.8C170 110.7 183 112.3 196 109.3C209 106.3 222 98.7 235 99.3C248 100 261 109 274 107.5C287 106 300 94 313 88C326 82 339 82 352 82.8C365 83.7 378 85.3 391 88.3C404 91.3 417 95.7 430.2 94.8C443.3 94 456.7 88 469.8 88C483 88 496 94 509 100C522 106 535 112 548 109.8C561 107.7 574 97.3 587 100.3C600 103.3 613 119.7 626 123.3C639 127 652 118 665 110.5C678 103 691 97 704 97.8C717 98.7 730 106.3 743.2 110.2C756.3 114 769.7 114 782.8 117C796 120 809 126 822 124.5C835 123 848 114 861 111C874 108 887 111 893.5 112.5L900 114L900 0L893.5 0C887 0 874 0 861 0C848 0 835 0 822 0C809 0 796 0 782.8 0C769.7 0 756.3 0 743.2 0C730 0 717 0 704 0C691 0 678 0 665 0C652 0 639 0 626 0C613 0 600 0 587 0C574 0 561 0 548 0C535 0 522 0 509 0C496 0 483 0 469.8 0C456.7 0 443.3 0 430.2 0C417 0 404 0 391 0C378 0 365 0 352 0C339 0 326 0 313 0C300 0 287 0 274 0C261 0 248 0 235 0C222 0 209 0 196 0C183 0 170 0 156.8 0C143.7 0 130.3 0 117.2 0C104 0 91 0 78 0C65 0 52 0 39 0C26 0 13 0 6.5 0L0 0Z" fill="#4c38ca"></path><path d="M0 96L6.5 93C13 90 26 84 39 80.2C52 76.3 65 74.7 78 83.7C91 92.7 104 112.3 117.2 122.8C130.3 133.3 143.7 134.7 156.8 133.8C170 133 183 130 196 124.8C209 119.7 222 112.3 235 113.2C248 114 261 123 274 122.2C287 121.3 300 110.7 313 105.3C326 100 339 100 352 101.5C365 103 378 106 391 110.5C404 115 417 121 430.2 118.8C443.3 116.7 456.7 106.3 469.8 104.2C483 102 496 108 509 115.5C522 123 535 132 548 131.2C561 130.3 574 119.7 587 121.2C600 122.7 613 136.3 626 140.2C639 144 652 138 665 130.5C678 123 691 114 704 114C717 114 730 123 743.2 126.7C756.3 130.3 769.7 128.7 782.8 132.3C796 136 809 145 822 145C835 145 848 136 861 133.8C874 131.7 887 136.3 893.5 138.7L900 141L900 112L893.5 110.5C887 109 874 106 861 109C848 112 835 121 822 122.5C809 124 796 118 782.8 115C769.7 112 756.3 112 743.2 108.2C730 104.3 717 96.7 704 95.8C691 95 678 101 665 108.5C652 116 639 125 626 121.3C613 117.7 600 101.3 587 98.3C574 95.3 561 105.7 548 107.8C535 110 522 104 509 98C496 92 483 86 469.8 86C456.7 86 443.3 92 430.2 92.8C417 93.7 404 89.3 391 86.3C378 83.3 365 81.7 352 80.8C339 80 326 80 313 86C300 92 287 104 274 105.5C261 107 248 98 235 97.3C222 96.7 209 104.3 196 107.3C183 110.3 170 108.7 156.8 107.8C143.7 107 130.3 107 117.2 98C104 89 91 71 78 62.8C65 54.7 52 56.3 39 60.8C26 65.3 13 72.7 6.5 76.3L0 80Z" fill="#4037bd"></path><path d="M0 127L6.5 124C13 121 26 115 39 109C52 103 65 97 78 104.5C91 112 104 133 117.2 144.3C130.3 155.7 143.7 157.3 156.8 157.3C170 157.3 183 155.7 196 151.2C209 146.7 222 139.3 235 140.2C248 141 261 150 274 148.5C287 147 300 135 313 127.5C326 120 339 117 352 117C365 117 378 120 391 126C404 132 417 141 430.2 141C443.3 141 456.7 132 469.8 129C483 126 496 129 509 135.7C522 142.3 535 152.7 548 152.7C561 152.7 574 142.3 587 143.2C600 144 613 156 626 158.2C639 160.3 652 152.7 665 144.3C678 136 691 127 704 130C717 133 730 148 743.2 151.8C756.3 155.7 769.7 148.3 782.8 151.3C796 154.3 809 167.7 822 169.2C835 170.7 848 160.3 861 158.8C874 157.3 887 164.7 893.5 168.3L900 172L900 139L893.5 136.7C887 134.3 874 129.7 861 131.8C848 134 835 143 822 143C809 143 796 134 782.8 130.3C769.7 126.7 756.3 128.3 743.2 124.7C730 121 717 112 704 112C691 112 678 121 665 128.5C652 136 639 142 626 138.2C613 134.3 600 120.7 587 119.2C574 117.7 561 128.3 548 129.2C535 130 522 121 509 113.5C496 106 483 100 469.8 102.2C456.7 104.3 443.3 114.7 430.2 116.8C417 119 404 113 391 108.5C378 104 365 101 352 99.5C339 98 326 98 313 103.3C300 108.7 287 119.3 274 120.2C261 121 248 112 235 111.2C222 110.3 209 117.7 196 122.8C183 128 170 131 156.8 131.8C143.7 132.7 130.3 131.3 117.2 120.8C104 110.3 91 90.7 78 81.7C65 72.7 52 74.3 39 78.2C26 82 13 88 6.5 91L0 94Z" fill="#3435b0"></path><path d="M0 145L6.5 140.5C13 136 26 127 39 121C52 115 65 112 78 120.3C91 128.7 104 148.3 117.2 158.2C130.3 168 143.7 168 156.8 168C170 168 183 168 196 163.5C209 159 222 150 235 151.5C248 153 261 165 274 163.5C287 162 300 147 313 138C326 129 339 126 352 128.2C365 130.3 378 137.7 391 144.3C404 151 417 157 430.2 156.3C443.3 155.7 456.7 148.3 469.8 146.8C483 145.3 496 149.7 509 155.7C522 161.7 535 169.3 548 167.8C561 166.3 574 155.7 587 155.7C600 155.7 613 166.3 626 169.3C639 172.3 652 167.7 665 161.7C678 155.7 691 148.3 704 151.3C717 154.3 730 167.7 743.2 169.8C756.3 172 769.7 163 782.8 166.8C796 170.7 809 187.3 822 190.3C835 193.3 848 182.7 861 180.3C874 178 887 184 893.5 187L900 190L900 170L893.5 166.3C887 162.7 874 155.3 861 156.8C848 158.3 835 168.7 822 167.2C809 165.7 796 152.3 782.8 149.3C769.7 146.3 756.3 153.7 743.2 149.8C730 146 717 131 704 128C691 125 678 134 665 142.3C652 150.7 639 158.3 626 156.2C613 154 600 142 587 141.2C574 140.3 561 150.7 548 150.7C535 150.7 522 140.3 509 133.7C496 127 483 124 469.8 127C456.7 130 443.3 139 430.2 139C417 139 404 130 391 124C378 118 365 115 352 115C339 115 326 118 313 125.5C300 133 287 145 274 146.5C261 148 248 139 235 138.2C222 137.3 209 144.7 196 149.2C183 153.7 170 155.3 156.8 155.3C143.7 155.3 130.3 153.7 117.2 142.3C104 131 91 110 78 102.5C65 95 52 101 39 107C26 113 13 119 6.5 122L0 125Z" fill="#2a33a3"></path><path d="M0 181L6.5 177.3C13 173.7 26 166.3 39 160.3C52 154.3 65 149.7 78 156.3C91 163 104 181 117.2 190C130.3 199 143.7 199 156.8 200.5C170 202 183 205 196 203.5C209 202 222 196 235 197.5C248 199 261 208 274 203.5C287 199 300 181 313 172C326 163 339 163 352 166C365 169 378 175 391 181.8C404 188.7 417 196.3 430.2 196.3C443.3 196.3 456.7 188.7 469.8 186.3C483 184 496 187 509 191.5C522 196 535 202 548 200.5C561 199 574 190 587 189.3C600 188.7 613 196.3 626 197.2C639 198 652 192 665 189C678 186 691 186 704 189C717 192 730 198 743.2 197.2C756.3 196.3 769.7 188.7 782.8 193.2C796 197.7 809 214.3 822 215.8C835 217.3 848 203.7 861 203.7C874 203.7 887 217.3 893.5 224.2L900 231L900 188L893.5 185C887 182 874 176 861 178.3C848 180.7 835 191.3 822 188.3C809 185.3 796 168.7 782.8 164.8C769.7 161 756.3 170 743.2 167.8C730 165.7 717 152.3 704 149.3C691 146.3 678 153.7 665 159.7C652 165.7 639 170.3 626 167.3C613 164.3 600 153.7 587 153.7C574 153.7 561 164.3 548 165.8C535 167.3 522 159.7 509 153.7C496 147.7 483 143.3 469.8 144.8C456.7 146.3 443.3 153.7 430.2 154.3C417 155 404 149 391 142.3C378 135.7 365 128.3 352 126.2C339 124 326 127 313 136C300 145 287 160 274 161.5C261 163 248 151 235 149.5C222 148 209 157 196 161.5C183 166 170 166 156.8 166C143.7 166 130.3 166 117.2 156.2C104 146.3 91 126.7 78 118.3C65 110 52 113 39 119C26 125 13 134 6.5 138.5L0 143Z" fill="#203095"></path><path d="M0 244L6.5 247C13 250 26 256 39 255.3C52 254.7 65 247.3 78 246.7C91 246 104 252 117.2 255C130.3 258 143.7 258 156.8 263.2C170 268.3 183 278.7 196 280.8C209 283 222 277 235 277C248 277 261 283 274 283C287 283 300 277 313 274C326 271 339 271 352 265.8C365 260.7 378 250.3 391 248.2C404 246 417 252 430.2 261C443.3 270 456.7 282 469.8 278.2C483 274.3 496 254.7 509 248.7C522 242.7 535 250.3 548 260.8C561 271.3 574 284.7 587 286.2C600 287.7 613 277.3 626 269.2C639 261 652 255 665 255.7C678 256.3 691 263.7 704 264.3C717 265 730 259 743.2 262.8C756.3 266.7 769.7 280.3 782.8 287.8C796 295.3 809 296.7 822 293.7C835 290.7 848 283.3 861 283.3C874 283.3 887 290.7 893.5 294.3L900 298L900 229L893.5 222.2C887 215.3 874 201.7 861 201.7C848 201.7 835 215.3 822 213.8C809 212.3 796 195.7 782.8 191.2C769.7 186.7 756.3 194.3 743.2 195.2C730 196 717 190 704 187C691 184 678 184 665 187C652 190 639 196 626 195.2C613 194.3 600 186.7 587 187.3C574 188 561 197 548 198.5C535 200 522 194 509 189.5C496 185 483 182 469.8 184.3C456.7 186.7 443.3 194.3 430.2 194.3C417 194.3 404 186.7 391 179.8C378 173 365 167 352 164C339 161 326 161 313 170C300 179 287 197 274 201.5C261 206 248 197 235 195.5C222 194 209 200 196 201.5C183 203 170 200 156.8 198.5C143.7 197 130.3 197 117.2 188C104 179 91 161 78 154.3C65 147.7 52 152.3 39 158.3C26 164.3 13 171.7 6.5 175.3L0 179Z" fill="#182e88"></path><path d="M0 298L6.5 299.5C13 301 26 304 39 301.8C52 299.7 65 292.3 78 290.2C91 288 104 291 117.2 292.5C130.3 294 143.7 294 156.8 297.7C170 301.3 183 308.7 196 312.3C209 316 222 316 235 317.5C248 319 261 322 274 322.8C287 323.7 300 322.3 313 318.7C326 315 339 309 352 304.5C365 300 378 297 391 296.2C404 295.3 417 296.7 430.2 304.8C443.3 313 456.7 328 469.8 325C483 322 496 301 509 294.3C522 287.7 535 295.3 548 302.8C561 310.3 574 317.7 587 316.2C600 314.7 613 304.3 626 296.8C639 289.3 652 284.7 665 287.7C678 290.7 691 301.3 704 305.2C717 309 730 306 743.2 307.5C756.3 309 769.7 315 782.8 324.7C796 334.3 809 347.7 822 346.2C835 344.7 848 328.3 861 323.2C874 318 887 324 893.5 327L900 330L900 296L893.5 292.3C887 288.7 874 281.3 861 281.3C848 281.3 835 288.7 822 291.7C809 294.7 796 293.3 782.8 285.8C769.7 278.3 756.3 264.7 743.2 260.8C730 257 717 263 704 262.3C691 261.7 678 254.3 665 253.7C652 253 639 259 626 267.2C613 275.3 600 285.7 587 284.2C574 282.7 561 269.3 548 258.8C535 248.3 522 240.7 509 246.7C496 252.7 483 272.3 469.8 276.2C456.7 280 443.3 268 430.2 259C417 250 404 244 391 246.2C378 248.3 365 258.7 352 263.8C339 269 326 269 313 272C300 275 287 281 274 281C261 281 248 275 235 275C222 275 209 281 196 278.8C183 276.7 170 266.3 156.8 261.2C143.7 256 130.3 256 117.2 253C104 250 91 244 78 244.7C65 245.3 52 252.7 39 253.3C26 254 13 248 6.5 245L0 242Z" fill="#112a7a"></path><path d="M0 339L6.5 337.5C13 336 26 333 39 330.7C52 328.3 65 326.7 78 326.7C91 326.7 104 328.3 117.2 327.7C130.3 327 143.7 324 156.8 324.7C170 325.3 183 329.7 196 332.7C209 335.7 222 337.3 235 338.8C248 340.3 261 341.7 274 343.2C287 344.7 300 346.3 313 347.2C326 348 339 348 352 344.2C365 340.3 378 332.7 391 328.2C404 323.7 417 322.3 430.2 328.3C443.3 334.3 456.7 347.7 469.8 346.2C483 344.7 496 328.3 509 324.7C522 321 535 330 548 336C561 342 574 345 587 341.2C600 337.3 613 326.7 626 321.3C639 316 652 316 665 321.3C678 326.7 691 337.3 704 341.8C717 346.3 730 344.7 743.2 344.7C756.3 344.7 769.7 346.3 782.8 352.3C796 358.3 809 368.7 822 368.7C835 368.7 848 358.3 861 356.2C874 354 887 360 893.5 363L900 366L900 328L893.5 325C887 322 874 316 861 321.2C848 326.3 835 342.7 822 344.2C809 345.7 796 332.3 782.8 322.7C769.7 313 756.3 307 743.2 305.5C730 304 717 307 704 303.2C691 299.3 678 288.7 665 285.7C652 282.7 639 287.3 626 294.8C613 302.3 600 312.7 587 314.2C574 315.7 561 308.3 548 300.8C535 293.3 522 285.7 509 292.3C496 299 483 320 469.8 323C456.7 326 443.3 311 430.2 302.8C417 294.7 404 293.3 391 294.2C378 295 365 298 352 302.5C339 307 326 313 313 316.7C300 320.3 287 321.7 274 320.8C261 320 248 317 235 315.5C222 314 209 314 196 310.3C183 306.7 170 299.3 156.8 295.7C143.7 292 130.3 292 117.2 290.5C104 289 91 286 78 288.2C65 290.3 52 297.7 39 299.8C26 302 13 299 6.5 297.5L0 296Z" fill="#0b276d"></path><path d="M0 352L6.5 354.3C13 356.7 26 361.3 39 362.2C52 363 65 360 78 358.5C91 357 104 357 117.2 353.2C130.3 349.3 143.7 341.7 156.8 342.3C170 343 183 352 196 355.8C209 359.7 222 358.3 235 360.7C248 363 261 369 274 370.5C287 372 300 369 313 367.5C326 366 339 366 352 364.5C365 363 378 360 391 355.5C404 351 417 345 430.2 349.5C443.3 354 456.7 369 469.8 370.5C483 372 496 360 509 358.5C522 357 535 366 548 369.7C561 373.3 574 371.7 587 365.7C600 359.7 613 349.3 626 344.8C639 340.3 652 341.7 665 346.2C678 350.7 691 358.3 704 360.7C717 363 730 360 743.2 362.2C756.3 364.3 769.7 371.7 782.8 377.7C796 383.7 809 388.3 822 385.3C835 382.3 848 371.7 861 370.8C874 370 887 379 893.5 383.5L900 388L900 364L893.5 361C887 358 874 352 861 354.2C848 356.3 835 366.7 822 366.7C809 366.7 796 356.3 782.8 350.3C769.7 344.3 756.3 342.7 743.2 342.7C730 342.7 717 344.3 704 339.8C691 335.3 678 324.7 665 319.3C652 314 639 314 626 319.3C613 324.7 600 335.3 587 339.2C574 343 561 340 548 334C535 328 522 319 509 322.7C496 326.3 483 342.7 469.8 344.2C456.7 345.7 443.3 332.3 430.2 326.3C417 320.3 404 321.7 391 326.2C378 330.7 365 338.3 352 342.2C339 346 326 346 313 345.2C300 344.3 287 342.7 274 341.2C261 339.7 248 338.3 235 336.8C222 335.3 209 333.7 196 330.7C183 327.7 170 323.3 156.8 322.7C143.7 322 130.3 325 117.2 325.7C104 326.3 91 324.7 78 324.7C65 324.7 52 326.3 39 328.7C26 331 13 334 6.5 335.5L0 337Z" fill="#082360"></path><path d="M0 411L6.5 413.2C13 415.3 26 419.7 39 419.7C52 419.7 65 415.3 78 413.8C91 412.3 104 413.7 117.2 414.3C130.3 415 143.7 415 156.8 413.5C170 412 183 409 196 408.3C209 407.7 222 409.3 235 410.8C248 412.3 261 413.7 274 412.2C287 410.7 300 406.3 313 406.3C326 406.3 339 410.7 352 414.3C365 418 378 421 391 419.5C404 418 417 412 430.2 412.8C443.3 413.7 456.7 421.3 469.8 421.3C483 421.3 496 413.7 509 410.7C522 407.7 535 409.3 548 410.8C561 412.3 574 413.7 587 415.8C600 418 613 421 626 420.3C639 419.7 652 415.3 665 413.8C678 412.3 691 413.7 704 415.8C717 418 730 421 743.2 421C756.3 421 769.7 418 782.8 418C796 418 809 421 822 419.5C835 418 848 412 861 411.3C874 410.7 887 415.3 893.5 417.7L900 420L900 386L893.5 381.5C887 377 874 368 861 368.8C848 369.7 835 380.3 822 383.3C809 386.3 796 381.7 782.8 375.7C769.7 369.7 756.3 362.3 743.2 360.2C730 358 717 361 704 358.7C691 356.3 678 348.7 665 344.2C652 339.7 639 338.3 626 342.8C613 347.3 600 357.7 587 363.7C574 369.7 561 371.3 548 367.7C535 364 522 355 509 356.5C496 358 483 370 469.8 368.5C456.7 367 443.3 352 430.2 347.5C417 343 404 349 391 353.5C378 358 365 361 352 362.5C339 364 326 364 313 365.5C300 367 287 370 274 368.5C261 367 248 361 235 358.7C222 356.3 209 357.7 196 353.8C183 350 170 341 156.8 340.3C143.7 339.7 130.3 347.3 117.2 351.2C104 355 91 355 78 356.5C65 358 52 361 39 360.2C26 359.3 13 354.7 6.5 352.3L0 350Z" fill="#071f53"></path><path d="M0 429L6.5 429.7C13 430.3 26 431.7 39 432.3C52 433 65 433 78 433.8C91 434.7 104 436.3 117.2 435.7C130.3 435 143.7 432 156.8 429.7C170 427.3 183 425.7 196 425.7C209 425.7 222 427.3 235 428.2C248 429 261 429 274 428.2C287 427.3 300 425.7 313 425.7C326 425.7 339 427.3 352 428.8C365 430.3 378 431.7 391 431.7C404 431.7 417 430.3 430.2 431.2C443.3 432 456.7 435 469.8 434.2C483 433.3 496 428.7 509 427.8C522 427 535 430 548 432.3C561 434.7 574 436.3 587 436.3C600 436.3 613 434.7 626 433.8C639 433 652 433 665 433C678 433 691 433 704 433.8C717 434.7 730 436.3 743.2 437.2C756.3 438 769.7 438 782.8 438C796 438 809 438 822 435.7C835 433.3 848 428.7 861 428.7C874 428.7 887 433.3 893.5 435.7L900 438L900 418L893.5 415.7C887 413.3 874 408.7 861 409.3C848 410 835 416 822 417.5C809 419 796 416 782.8 416C769.7 416 756.3 419 743.2 419C730 419 717 416 704 413.8C691 411.7 678 410.3 665 411.8C652 413.3 639 417.7 626 418.3C613 419 600 416 587 413.8C574 411.7 561 410.3 548 408.8C535 407.3 522 405.7 509 408.7C496 411.7 483 419.3 469.8 419.3C456.7 419.3 443.3 411.7 430.2 410.8C417 410 404 416 391 417.5C378 419 365 416 352 412.3C339 408.7 326 404.3 313 404.3C300 404.3 287 408.7 274 410.2C261 411.7 248 410.3 235 408.8C222 407.3 209 405.7 196 406.3C183 407 170 410 156.8 411.5C143.7 413 130.3 413 117.2 412.3C104 411.7 91 410.3 78 411.8C65 413.3 52 417.7 39 417.7C26 417.7 13 413.3 6.5 411.2L0 409Z" fill="#071b46"></path><path d="M0 451L6.5 451C13 451 26 451 39 451C52 451 65 451 78 451C91 451 104 451 117.2 451C130.3 451 143.7 451 156.8 451C170 451 183 451 196 451C209 451 222 451 235 451C248 451 261 451 274 451C287 451 300 451 313 451C326 451 339 451 352 451C365 451 378 451 391 451C404 451 417 451 430.2 451C443.3 451 456.7 451 469.8 451C483 451 496 451 509 451C522 451 535 451 548 451C561 451 574 451 587 451C600 451 613 451 626 451C639 451 652 451 665 451C678 451 691 451 704 451C717 451 730 451 743.2 451C756.3 451 769.7 451 782.8 451C796 451 809 451 822 451C835 451 848 451 861 451C874 451 887 451 893.5 451L900 451L900 436L893.5 433.7C887 431.3 874 426.7 861 426.7C848 426.7 835 431.3 822 433.7C809 436 796 436 782.8 436C769.7 436 756.3 436 743.2 435.2C730 434.3 717 432.7 704 431.8C691 431 678 431 665 431C652 431 639 431 626 431.8C613 432.7 600 434.3 587 434.3C574 434.3 561 432.7 548 430.3C535 428 522 425 509 425.8C496 426.7 483 431.3 469.8 432.2C456.7 433 443.3 430 430.2 429.2C417 428.3 404 429.7 391 429.7C378 429.7 365 428.3 352 426.8C339 425.3 326 423.7 313 423.7C300 423.7 287 425.3 274 426.2C261 427 248 427 235 426.2C222 425.3 209 423.7 196 423.7C183 423.7 170 425.3 156.8 427.7C143.7 430 130.3 433 117.2 433.7C104 434.3 91 432.7 78 431.8C65 431 52 431 39 430.3C26 429.7 13 428.3 6.5 427.7L0 427Z" fill="#081739"></path></svg>